<svg width="16" height="15" viewBox="0 0 16 15" fill="none" xmlns="http://www.w3.org/2000/svg">
<path d="M1.32635 15.0001C1.21216 14.9999 1.09925 14.9759 0.994819 14.9297C0.890386 14.8835 0.796707 14.816 0.719741 14.7317C0.641382 14.648 0.58159 14.5487 0.544284 14.4403C0.506978 14.3319 0.493002 14.2168 0.503271 14.1027L0.704925 11.8847L10.0205 2.56983L12.9318 5.48103L3.61862 14.7951L1.40125 14.9968C1.37635 14.9991 1.35135 15.0002 1.32635 15.0001ZM13.5129 4.89895L10.6024 1.98775L12.3482 0.241525C12.4246 0.164977 12.5154 0.104251 12.6153 0.0628189C12.7153 0.0213868 12.8224 6.10352e-05 12.9305 6.10352e-05C13.0387 6.10352e-05 13.1458 0.0213868 13.2457 0.0628189C13.3456 0.104251 13.4364 0.164977 13.5129 0.241525L15.2586 1.98775C15.3351 2.06421 15.3958 2.15501 15.4373 2.25496C15.4787 2.35491 15.5 2.46204 15.5 2.57024C15.5 2.67843 15.4787 2.78557 15.4373 2.88551C15.3958 2.98546 15.3351 3.07626 15.2586 3.15272L13.5137 4.89813L13.5129 4.89895Z" fill="#2B2B2B"/>
</svg>
