<svg width="20" height="20" viewBox="0 0 20 20" fill="none" xmlns="http://www.w3.org/2000/svg">
<path d="M10.0003 1.6665C5.40033 1.6665 1.66699 5.39984 1.66699 9.99984C1.66699 14.5998 5.40033 18.3332 10.0003 18.3332H14.167V16.6665H10.0003C6.38366 16.6665 3.33366 13.6165 3.33366 9.99984C3.33366 6.38317 6.38366 3.33317 10.0003 3.33317C13.617 3.33317 16.667 6.38317 16.667 9.99984V11.1915C16.667 11.8498 16.0753 12.4998 15.417 12.4998C14.7587 12.4998 14.167 11.8498 14.167 11.1915V9.99984C14.167 7.69984 12.3003 5.83317 10.0003 5.83317C7.70033 5.83317 5.83366 7.69984 5.83366 9.99984C5.83366 12.2998 7.70033 14.1665 10.0003 14.1665C11.1503 14.1665 12.2003 13.6998 12.9503 12.9415C13.492 13.6832 14.4253 14.1665 15.417 14.1665C17.0587 14.1665 18.3337 12.8332 18.3337 11.1915V9.99984C18.3337 5.39984 14.6003 1.6665 10.0003 1.6665ZM10.0003 12.4998C8.61699 12.4998 7.50033 11.3832 7.50033 9.99984C7.50033 8.6165 8.61699 7.49984 10.0003 7.49984C11.3837 7.49984 12.5003 8.6165 12.5003 9.99984C12.5003 11.3832 11.3837 12.4998 10.0003 12.4998Z" fill="#7A7A7A"/>
</svg>
