<svg width="30" height="40" viewBox="0 0 30 40" fill="none" xmlns="http://www.w3.org/2000/svg">
<path d="M0.5 36.0001V4.00006C0.5 2.06706 2.067 0.500061 4 0.500061H17.9C18.7987 0.500061 19.663 0.845773 20.3138 1.46558L28.4138 9.17986C29.1074 9.84046 29.5 10.7565 29.5 11.7143V36.0001C29.5 37.9331 27.933 39.5001 26 39.5001H4C2.067 39.5001 0.5 37.9331 0.5 36.0001Z" fill="#F4F4F4" stroke="#E5E9EB"/>
<g clip-path="url(#clip0_2982_83188)">
<path fill-rule="evenodd" clip-rule="evenodd" d="M13.9483 13.804C13.4321 13.8962 13.0904 14.2411 12.9237 14.8381C12.6495 15.8204 12.9024 17.4154 13.579 18.9719L13.719 19.2941L13.4698 19.9656C12.9051 21.4864 12.4173 22.6029 11.713 23.9861L11.3378 24.7232L10.8576 24.9155C9.80232 25.3382 9.17323 25.6543 8.47202 26.1143C7.9608 26.4496 7.58912 26.7665 7.31115 27.1041C6.91375 27.5866 6.76237 27.9987 6.83164 28.4093C6.91622 28.911 7.21078 29.2114 7.76062 29.3568C8.00599 29.4216 8.55935 29.4212 8.80408 29.3559C9.85965 29.0745 10.9597 28.1067 12.0537 26.497C12.3478 26.0643 12.7011 25.4918 12.8387 25.225C12.917 25.0732 12.9252 25.0676 13.2333 24.9554C14.0268 24.6666 15.232 24.3493 16.4829 24.0999L17.1922 23.9584L17.2967 24.0443C17.3541 24.0915 17.5102 24.2194 17.6436 24.3284C18.4307 24.9718 19.5953 25.5257 20.5614 25.7162C21.3653 25.8747 22.11 25.8212 22.6133 25.5689C22.8024 25.4741 23.0226 25.2254 23.1084 25.0097C23.1672 24.862 23.1832 24.7594 23.1844 24.5235C23.1862 24.1623 23.1475 24.0234 22.9735 23.7673C22.6217 23.2497 21.8136 22.9162 20.6887 22.8246C20.096 22.7764 18.9775 22.8383 17.9193 22.978L17.487 23.0351L17.2538 22.7899C16.6087 22.1115 16.0233 21.4023 15.6372 20.8313C15.3966 20.4756 15.1652 20.0571 15.1652 19.9779C15.1652 19.9495 15.2149 19.7861 15.2756 19.6147C15.5917 18.7222 15.8321 17.4435 15.8881 16.3571C15.965 14.8638 15.3739 13.8957 14.3165 13.7838C14.2285 13.7745 14.0627 13.7836 13.9483 13.804ZM14.3724 14.7426C14.493 14.8813 14.5088 14.9837 14.5079 15.6175C14.5072 16.0446 14.491 16.2566 14.4359 16.5616C14.3472 17.0523 14.1358 17.9463 14.1085 17.9463C14.0795 17.9463 13.8977 17.2093 13.8172 16.7649C13.7347 16.3095 13.6999 15.4404 13.753 15.1614C13.8487 14.6582 14.1323 14.4664 14.3724 14.7426ZM15.419 22.0374C15.5321 22.1845 15.7627 22.4657 15.9314 22.6623C16.1 22.8589 16.2781 23.0666 16.3272 23.124C16.4319 23.2466 16.4845 23.2205 15.8537 23.3591C15.2469 23.4925 14.7354 23.6198 14.1295 23.7881C13.8504 23.8655 13.6089 23.9246 13.5927 23.9193C13.5765 23.914 13.6152 23.8035 13.6787 23.6737C13.9142 23.1926 14.1951 22.5154 14.7223 21.1577C14.7503 21.0855 14.767 21.1026 14.9827 21.4252C15.1095 21.6148 15.3058 21.8903 15.419 22.0374ZM20.9457 23.7654C21.2462 23.8439 21.4601 23.9643 21.5615 24.1122C21.6531 24.2457 21.6532 24.3472 21.5621 24.5246C21.3816 24.876 20.8546 24.9252 20.0488 24.6658C19.5608 24.5087 18.9437 24.2004 18.5226 23.9033L18.3536 23.784L18.5768 23.7593C19.1351 23.6974 19.5163 23.6795 20.081 23.6887C20.5771 23.6967 20.7368 23.7109 20.9457 23.7654ZM10.4536 26.1678C9.35868 27.7698 8.3215 28.7055 7.88545 28.4848C7.64286 28.3621 7.61378 28.2106 7.77548 27.912C7.9772 27.5394 8.54663 27.0527 9.30082 26.6083C9.63243 26.4129 10.5058 25.9712 10.5606 25.9712C10.5757 25.9712 10.5275 26.0597 10.4536 26.1678Z" fill="#E32222"/>
</g>
<defs>
<clipPath id="clip0_2982_83188">
<rect width="16.6667" height="16.6667" fill="white" transform="translate(6.66699 13.3334)"/>
</clipPath>
</defs>
</svg>
