<svg width="24" height="24" viewBox="0 0 24 24" fill="none" xmlns="http://www.w3.org/2000/svg">
<path d="M22 3.94252V9.61067M22 9.61067H16.5455M22 9.61067L17.7818 5.49181C16.8048 4.476 15.596 3.73394 14.2684 3.33487C12.9407 2.9358 11.5374 2.89273 10.1894 3.20968C8.84133 3.52663 7.59255 4.19327 6.55952 5.1474C5.52648 6.10152 4.74288 7.31203 4.28182 8.66598M2 19.0576V13.3894M2 13.3894H7.45455M2 13.3894L6.21818 17.5083C7.19523 18.5241 8.40398 19.2662 9.73165 19.6653C11.0593 20.0643 12.4626 20.1074 13.8106 19.7904C15.1587 19.4735 16.4075 18.8068 17.4405 17.8527C18.4735 16.8986 19.2571 15.6881 19.7182 14.3341" stroke="#1F9BD0" stroke-width="2" stroke-linecap="round" stroke-linejoin="round"/>
</svg>
