<svg width="24" height="24" viewBox="0 0 24 24" fill="none" xmlns="http://www.w3.org/2000/svg">
<path fill-rule="evenodd" clip-rule="evenodd" d="M12 22.9999C14.7848 22.9999 17.4555 21.8936 19.4246 19.9245C21.3938 17.9554 22.5 15.2846 22.5 12.4999C22.5 9.71509 21.3938 7.04437 19.4246 5.07524C17.4555 3.10611 14.7848 1.99986 12 1.99986C9.21523 1.99986 6.54451 3.10611 4.57538 5.07524C2.60625 7.04437 1.5 9.71509 1.5 12.4999C1.5 15.2846 2.60625 17.9554 4.57538 19.9245C6.54451 21.8936 9.21523 22.9999 12 22.9999ZM16.8654 10.8028C17.1045 10.5553 17.2368 10.2237 17.2338 9.87959C17.2308 9.53545 17.0928 9.20626 16.8494 8.96291C16.6061 8.71957 16.2769 8.58153 15.9328 8.57854C15.5886 8.57555 15.2571 8.70784 15.0096 8.94693L10.6875 13.269L8.99044 11.5719C8.7429 11.3328 8.41136 11.2006 8.06722 11.2035C7.72309 11.2065 7.3939 11.3446 7.15055 11.5879C6.9072 11.8313 6.76917 12.1605 6.76618 12.5046C6.76319 12.8487 6.89548 13.1803 7.13456 13.4278L9.75956 16.0528C10.0057 16.2989 10.3395 16.4371 10.6875 16.4371C11.0355 16.4371 11.3693 16.2989 11.6154 16.0528L16.8654 10.8028Z" fill="#4DB663"/>
</svg>
